<svg width="144" height="49" viewBox="0 0 144 49" fill="none" xmlns="http://www.w3.org/2000/svg">
<path d="M139.2 0.595947H4.79961C2.48001 0.595947 0.599609 2.4765 0.599609 4.79629V43.1994C0.599609 45.5192 2.48001 47.3998 4.79961 47.3998H139.2C141.519 47.3998 143.4 45.5192 143.4 43.1994V4.79629C143.4 2.4765 141.519 0.595947 139.2 0.595947Z" fill="#0B0B0B"/>
<path d="M32.2431 23.7048C32.2113 20.0656 35.1418 18.2955 35.2761 18.2127C33.6162 15.725 31.0434 15.3851 30.1401 15.3587C27.9798 15.1254 25.8841 16.6872 24.7832 16.6872C23.6602 16.6872 21.9649 15.3813 20.139 15.419C17.7882 15.4565 15.5888 16.8554 14.3829 19.0268C11.8942 23.4565 13.7506 29.9647 16.1356 33.5451C17.3281 35.2988 18.7232 37.2558 20.5466 37.1868C22.3323 37.1116 22.9987 36.0177 25.1529 36.0177C27.2877 36.0177 27.9139 37.1868 29.774 37.1429C31.6902 37.1116 32.896 35.3816 34.0471 33.6128C35.425 31.6031 35.9792 29.6236 36.0012 29.5219C35.9547 29.5081 32.2797 28.0655 32.2431 23.7048V23.7048Z" fill="white"/>
<path d="M28.7277 13.0047C29.6883 11.7703 30.345 10.0918 30.162 8.38818C28.7729 8.45091 27.0347 9.37547 26.0338 10.5835C25.1487 11.6473 24.3579 13.3898 24.5617 15.0294C26.1229 15.1486 27.7256 14.2203 28.7277 13.0047V13.0047Z" fill="white"/>
<path d="M60.3397 36.177H57.8867L56.5426 31.9551H51.8718L50.5913 36.177H48.2031L52.8307 21.8035H55.6881L60.3397 36.177ZM56.1382 30.1838L54.9225 26.4298C54.7941 26.047 54.5528 25.1433 54.1976 23.7224H54.1544C54.0128 24.3333 53.7848 25.2369 53.4716 26.4298L52.2787 30.1838H56.1382Z" fill="white"/>
<path d="M72.2371 30.8576C72.2371 32.6205 71.7606 34.0138 70.8078 35.0363C69.9545 35.9472 68.8948 36.402 67.6299 36.402C66.2642 36.402 65.2837 35.9112 64.6873 34.9307H64.6441V40.3899H62.3411V29.2146C62.3411 28.1069 62.3123 26.9692 62.2559 25.8027H64.2816L64.41 27.4457H64.4532C65.2213 26.2084 66.3866 25.5903 67.9503 25.5903C69.1732 25.5903 70.1933 26.0728 71.0106 27.0401C71.829 28.0073 72.2371 29.2794 72.2371 30.8576V30.8576ZM69.8909 30.9416C69.8909 29.9323 69.6641 29.1006 69.208 28.4466C68.71 27.7637 68.0415 27.4229 67.2039 27.4229C66.6362 27.4229 66.119 27.6125 65.6581 27.9881C65.1961 28.3662 64.8937 28.8594 64.7521 29.4714C64.6813 29.7571 64.6453 29.9899 64.6453 30.1735V31.9016C64.6453 32.6553 64.8769 33.2914 65.3389 33.811C65.8009 34.3306 66.4022 34.5899 67.1403 34.5899C68.0079 34.5899 68.6824 34.255 69.166 33.5878C69.6485 32.9181 69.8909 32.0373 69.8909 30.9416V30.9416Z" fill="white"/>
<path d="M84.157 30.8576C84.157 32.6205 83.6805 34.0138 82.7265 35.0363C81.8744 35.9472 80.8147 36.402 79.5498 36.402C78.1841 36.402 77.2036 35.9112 76.6072 34.9307H76.564V40.3899H74.261V29.2146C74.261 28.1069 74.2322 26.9692 74.1758 25.8027H76.2015L76.33 27.4457H76.3732C77.14 26.2084 78.3053 25.5903 79.8702 25.5903C81.0919 25.5903 82.112 26.0728 82.9317 27.0401C83.7478 28.0073 84.157 29.2794 84.157 30.8576V30.8576ZM81.8108 30.9416C81.8108 29.9323 81.5828 29.1006 81.1267 28.4466C80.6287 27.7637 79.9626 27.4229 79.1226 27.4229C78.5537 27.4229 78.0377 27.6125 77.5757 27.9881C77.1136 28.3662 76.8124 28.8594 76.6708 29.4714C76.6 29.7571 76.564 29.9899 76.564 30.1735V31.9016C76.564 32.6553 76.7956 33.2914 77.2552 33.811C77.7173 34.3294 78.3185 34.5899 79.059 34.5899C79.9266 34.5899 80.6011 34.255 81.0847 33.5878C81.5696 32.9181 81.8108 32.0373 81.8108 30.9416V30.9416Z" fill="white"/>
<path d="M97.4843 32.1521C97.4843 33.375 97.0595 34.3698 96.2074 35.1379C95.2713 35.9768 93.9668 36.3968 92.2915 36.3968C90.7445 36.3968 89.5049 36.0992 88.5664 35.5015L89.1004 33.5826C90.1109 34.1934 91.221 34.5007 92.4295 34.5007C93.2972 34.5007 93.9716 34.3038 94.4565 33.9126C94.9389 33.5214 95.1801 32.9969 95.1801 32.3417C95.1801 31.7584 94.9809 31.2664 94.5825 30.868C94.1865 30.4695 93.524 30.0987 92.5999 29.7567C90.0833 28.8182 88.8256 27.4429 88.8256 25.6355C88.8256 24.4534 89.2661 23.485 90.1481 22.7313C91.0278 21.9764 92.2003 21.5996 93.6668 21.5996C94.9749 21.5996 96.061 21.8276 96.9287 22.2825L96.3526 24.1594C95.5426 23.719 94.6269 23.4982 93.602 23.4982C92.7919 23.4982 92.1595 23.6986 91.7059 24.0958C91.323 24.451 91.1298 24.8843 91.1298 25.3967C91.1298 25.9644 91.3494 26.4348 91.7899 26.8044C92.1739 27.1453 92.87 27.5149 93.8804 27.9133C95.1165 28.4114 96.025 28.9934 96.6095 29.6607C97.1939 30.3255 97.4843 31.1584 97.4843 32.1521V32.1521Z" fill="white"/>
<path d="M105.096 27.5412H102.558V32.5732C102.558 33.8525 103.006 34.4922 103.902 34.4922C104.314 34.4922 104.655 34.4562 104.925 34.3854L104.988 36.1339C104.535 36.3031 103.937 36.3883 103.198 36.3883C102.288 36.3883 101.578 36.1111 101.065 35.5567C100.554 35.001 100.297 34.0709 100.297 32.7628V27.5388H98.7852V25.8107H100.297V23.9133L102.559 23.2305V25.8107H105.098L105.096 27.5412Z" fill="white"/>
<path d="M116.548 30.8996C116.548 32.4933 116.092 33.8002 115.182 34.8239C114.228 35.8764 112.963 36.402 111.385 36.402C109.865 36.402 108.654 35.898 107.751 34.8887C106.849 33.8794 106.396 32.6061 106.396 31.0712C106.396 29.4654 106.861 28.1501 107.793 27.1265C108.723 26.1028 109.979 25.5903 111.557 25.5903C113.077 25.5903 114.302 26.0944 115.224 27.1049C116.108 28.0853 116.548 29.3502 116.548 30.8996V30.8996ZM114.159 30.974C114.159 30.0175 113.955 29.1978 113.541 28.515C113.058 27.6881 112.368 27.2753 111.473 27.2753C110.548 27.2753 109.844 27.6893 109.361 28.515C108.947 29.2002 108.743 30.0331 108.743 31.0172C108.743 31.9725 108.947 32.7933 109.361 33.475C109.859 34.3018 110.555 34.7147 111.451 34.7147C112.331 34.7147 113.021 34.2934 113.519 33.4534C113.945 32.7573 114.159 31.9292 114.159 30.974V30.974Z" fill="white"/>
<path d="M124.032 27.8309C123.804 27.7889 123.562 27.7673 123.306 27.7673C122.496 27.7673 121.869 28.0733 121.429 28.6854C121.045 29.2254 120.853 29.9083 120.853 30.7316V36.1692H118.551L118.573 29.0682C118.573 27.8741 118.544 26.7856 118.486 25.8051H120.492L120.576 27.7877H120.639C120.882 27.1061 121.266 26.5576 121.79 26.146C122.303 25.7751 122.857 25.5903 123.455 25.5903C123.667 25.5903 123.86 25.6059 124.031 25.6323C124.032 25.6347 124.032 27.8309 124.032 27.8309V27.8309Z" fill="white"/>
<path d="M134.329 30.5077C134.329 30.9206 134.302 31.2686 134.245 31.5518H127.337C127.363 32.5755 127.698 33.3592 128.339 33.8992C128.921 34.3816 129.674 34.6241 130.599 34.6241C131.621 34.6241 132.555 34.4608 133.394 34.1332L133.755 35.7317C132.775 36.159 131.616 36.3726 130.281 36.3726C128.674 36.3726 127.413 35.8998 126.494 34.9541C125.579 34.0084 125.119 32.7399 125.119 31.1474C125.119 29.5848 125.545 28.2827 126.4 27.2447C127.294 26.137 128.502 25.5825 130.024 25.5825C131.518 25.5825 132.649 26.137 133.417 27.2447C134.024 28.1255 134.329 29.214 134.329 30.5077V30.5077ZM132.134 29.9101C132.149 29.2272 131.998 28.638 131.686 28.1399C131.288 27.4991 130.676 27.1799 129.851 27.1799C129.099 27.1799 128.485 27.4919 128.019 28.1183C127.635 28.6164 127.408 29.214 127.337 29.9089L132.134 29.9101Z" fill="white"/>
<path d="M53.2996 13.4417C53.2996 12.8764 53.2228 12.4248 53.0692 12.0868C52.9156 11.7489 52.7128 11.4939 52.4609 11.3218C52.209 11.1436 51.9203 11.03 51.5946 10.9808C51.269 10.9255 50.9342 10.8979 50.5901 10.8979H49.733V15.9947H50.5901C50.9342 15.9947 51.269 15.9702 51.5946 15.921C51.9203 15.8657 52.209 15.7489 52.4609 15.5708C52.7128 15.3926 52.9156 15.1376 53.0692 14.8058C53.2228 14.4678 53.2996 14.0131 53.2996 13.4417ZM50.6177 10.1052C51.1461 10.1052 51.6315 10.1605 52.0739 10.2711C52.5224 10.3817 52.9064 10.5661 53.2259 10.8241C53.5515 11.0822 53.8034 11.4263 53.9816 11.8564C54.1659 12.2804 54.2581 12.8088 54.2581 13.4417C54.2581 14.0807 54.1659 14.6153 53.9816 15.0454C53.8034 15.4694 53.5515 15.8104 53.2259 16.0685C52.9064 16.3265 52.5224 16.5109 52.0739 16.6215C51.6315 16.7321 51.1461 16.7874 50.6177 16.7874H48.793V10.1052H50.6177Z" fill="white"/>
<path d="M55.9673 14.3265C55.9673 14.6583 56.0042 14.9409 56.0779 15.1744C56.1578 15.4079 56.2622 15.5984 56.3913 15.7459C56.5264 15.8933 56.6831 16.0009 56.8613 16.0685C57.0395 16.1361 57.2269 16.1698 57.4235 16.1698C57.6201 16.1698 57.8075 16.133 57.9856 16.0592C58.1638 15.9855 58.3174 15.8749 58.4464 15.7274C58.5816 15.5738 58.6861 15.3834 58.7598 15.156C58.8397 14.9225 58.8796 14.646 58.8796 14.3265C58.8796 13.9947 58.8397 13.712 58.7598 13.4786C58.6861 13.2451 58.5816 13.0546 58.4464 12.9071C58.3174 12.7596 58.1638 12.6521 57.9856 12.5845C57.8075 12.5169 57.6201 12.4831 57.4235 12.4831C57.2269 12.4831 57.0395 12.5169 56.8613 12.5845C56.6831 12.646 56.5264 12.7504 56.3913 12.8979C56.2622 13.0454 56.1578 13.2358 56.0779 13.4693C56.0042 13.7028 55.9673 13.9885 55.9673 14.3265ZM55.0734 14.3265C55.0734 13.8779 55.1379 13.4908 55.2669 13.1652C55.4021 12.8395 55.5803 12.5722 55.8014 12.3633C56.0226 12.1544 56.2745 12.0008 56.5572 11.9025C56.8398 11.798 57.1286 11.7458 57.4235 11.7458C57.7184 11.7458 58.0071 11.798 58.2898 11.9025C58.5724 12.0008 58.8243 12.1544 59.0455 12.3633C59.2667 12.5722 59.4418 12.8395 59.5708 13.1652C59.706 13.4908 59.7735 13.8779 59.7735 14.3265C59.7735 14.775 59.706 15.1621 59.5708 15.4878C59.4418 15.8135 59.2667 16.0808 59.0455 16.2897C58.8243 16.4986 58.5724 16.6553 58.2898 16.7597C58.0071 16.858 57.7184 16.9072 57.4235 16.9072C57.1286 16.9072 56.8398 16.858 56.5572 16.7597C56.2745 16.6553 56.0226 16.4986 55.8014 16.2897C55.5803 16.0808 55.4021 15.8135 55.2669 15.4878C55.1379 15.1621 55.0734 14.775 55.0734 14.3265Z" fill="white"/>
<path d="M62.954 11.8288H63.8203L64.8064 15.497L65.7557 11.8288H66.6588L65.2304 16.7874H64.4654L63.3687 12.7965L62.3089 16.7874H61.544L60.1155 11.8288H61.0186L61.9679 15.497L62.954 11.8288Z" fill="white"/>
<path d="M68.2046 12.5753C68.3459 12.3418 68.5425 12.1452 68.7944 11.9854C69.0525 11.8257 69.3904 11.7458 69.8082 11.7458C70.1092 11.7458 70.3611 11.7919 70.5639 11.8841C70.7728 11.9762 70.9418 12.1083 71.0708 12.2804C71.1998 12.4463 71.292 12.646 71.3473 12.8795C71.4087 13.113 71.4394 13.371 71.4394 13.6537V16.7874H70.6008V13.9025C70.6008 13.712 70.5885 13.5308 70.5639 13.3587C70.5393 13.1867 70.4902 13.0362 70.4164 12.9071C70.3427 12.7719 70.2321 12.6675 70.0847 12.5937C69.9434 12.5139 69.7529 12.4739 69.5133 12.4739C69.1078 12.4739 68.7883 12.6122 68.5548 12.8887C68.3213 13.159 68.2046 13.5615 68.2046 14.0961V16.7874H67.3659V11.8288H68.2046V12.5753Z" fill="white"/>
<path d="M73.5326 16.7874H72.6939V10.1052H73.5326V16.7874Z" fill="white"/>
<path d="M75.4343 14.3265C75.4343 14.6583 75.4712 14.9409 75.5449 15.1744C75.6248 15.4079 75.7292 15.5984 75.8583 15.7459C75.9934 15.8933 76.1501 16.0009 76.3283 16.0685C76.5065 16.1361 76.6939 16.1698 76.8905 16.1698C77.0871 16.1698 77.2745 16.133 77.4526 16.0592C77.6308 15.9855 77.7844 15.8749 77.9134 15.7274C78.0486 15.5738 78.1531 15.3834 78.2268 15.156C78.3067 14.9225 78.3466 14.646 78.3466 14.3265C78.3466 13.9947 78.3067 13.712 78.2268 13.4786C78.1531 13.2451 78.0486 13.0546 77.9134 12.9071C77.7844 12.7596 77.6308 12.6521 77.4526 12.5845C77.2745 12.5169 77.0871 12.4831 76.8905 12.4831C76.6939 12.4831 76.5065 12.5169 76.3283 12.5845C76.1501 12.646 75.9934 12.7504 75.8583 12.8979C75.7292 13.0454 75.6248 13.2358 75.5449 13.4693C75.4712 13.7028 75.4343 13.9885 75.4343 14.3265ZM74.5404 14.3265C74.5404 13.8779 74.6049 13.4908 74.7339 13.1652C74.8691 12.8395 75.0473 12.5722 75.2684 12.3633C75.4896 12.1544 75.7415 12.0008 76.0242 11.9025C76.3068 11.798 76.5956 11.7458 76.8905 11.7458C77.1854 11.7458 77.4741 11.798 77.7568 11.9025C78.0394 12.0008 78.2913 12.1544 78.5125 12.3633C78.7337 12.5722 78.9088 12.8395 79.0378 13.1652C79.173 13.4908 79.2405 13.8779 79.2405 14.3265C79.2405 14.775 79.173 15.1621 79.0378 15.4878C78.9088 15.8135 78.7337 16.0808 78.5125 16.2897C78.2913 16.4986 78.0394 16.6553 77.7568 16.7597C77.4741 16.858 77.1854 16.9072 76.8905 16.9072C76.5956 16.9072 76.3068 16.858 76.0242 16.7597C75.7415 16.6553 75.4896 16.4986 75.2684 16.2897C75.0473 16.0808 74.8691 15.8135 74.7339 15.4878C74.6049 15.1621 74.5404 14.775 74.5404 14.3265Z" fill="white"/>
<path d="M83.3784 14.4002C82.9975 14.4371 82.6534 14.4832 82.3462 14.5385C82.039 14.5876 81.7779 14.6522 81.5628 14.732C81.3478 14.8058 81.1819 14.9041 81.0652 15.027C80.9484 15.1437 80.8901 15.2881 80.8901 15.4602C80.8901 15.6936 80.973 15.8841 81.1389 16.0316C81.3109 16.1729 81.5475 16.2436 81.8485 16.2436C82.0451 16.2436 82.2356 16.219 82.4199 16.1698C82.6042 16.1145 82.7671 16.0255 82.9084 15.9026C83.0497 15.7735 83.1633 15.6015 83.2494 15.3864C83.3354 15.1714 83.3784 14.8979 83.3784 14.5661V14.4002ZM81.6642 16.9072C81.4307 16.9072 81.2096 16.8734 81.0007 16.8058C80.7979 16.7444 80.6167 16.6553 80.4569 16.5385C80.3033 16.4156 80.1804 16.2682 80.0883 16.0961C80.0023 15.9179 79.9592 15.7182 79.9592 15.497C79.9592 15.2021 80.0391 14.9563 80.1989 14.7597C80.3586 14.5569 80.5829 14.391 80.8716 14.262C81.1665 14.1268 81.5198 14.0193 81.9315 13.9394C82.3431 13.8595 82.8039 13.7919 83.3139 13.7366V13.5984C83.3139 13.3649 83.2832 13.1713 83.2217 13.0177C83.1664 12.8641 83.0865 12.7443 82.9821 12.6583C82.8776 12.5661 82.7548 12.5016 82.6135 12.4647C82.4721 12.4278 82.3216 12.4094 82.1619 12.4094C81.7748 12.4094 81.483 12.4985 81.2864 12.6767C81.0897 12.8487 80.9822 13.0884 80.9638 13.3956H80.0975C80.1159 13.1314 80.1866 12.8948 80.3095 12.6859C80.4323 12.477 80.589 12.3019 80.7795 12.1606C80.9699 12.0192 81.185 11.9117 81.4246 11.838C81.6642 11.7642 81.913 11.7274 82.1711 11.7274C82.8592 11.7274 83.363 11.8871 83.6825 12.2066C84.002 12.5262 84.1587 13.0423 84.1525 13.7551L84.1433 14.9164C84.1372 15.3342 84.1433 15.6936 84.1617 15.9947C84.1863 16.2897 84.2232 16.5539 84.2723 16.7874H83.4245C83.4122 16.6952 83.3999 16.5877 83.3876 16.4648C83.3753 16.3419 83.3661 16.2067 83.36 16.0592C83.2064 16.3173 82.9944 16.5232 82.724 16.6768C82.4599 16.8304 82.1066 16.9072 81.6642 16.9072Z" fill="white"/>
<path d="M88.766 10.1052H89.6047V16.7874H88.766V16.0408C88.6124 16.305 88.4035 16.517 88.1393 16.6768C87.8751 16.8304 87.5433 16.9072 87.144 16.9072C86.8491 16.9072 86.5757 16.8519 86.3238 16.7413C86.0719 16.6245 85.8507 16.4556 85.6602 16.2344C85.4697 16.0132 85.3192 15.7428 85.2086 15.4233C85.1042 15.1038 85.052 14.7382 85.052 14.3265C85.052 13.921 85.1042 13.5584 85.2086 13.2389C85.3192 12.9194 85.4697 12.649 85.6602 12.4278C85.8507 12.2066 86.0719 12.0377 86.3238 11.9209C86.5757 11.8042 86.8491 11.7458 87.144 11.7458C87.5433 11.7458 87.8751 11.8257 88.1393 11.9854C88.4035 12.1391 88.6124 12.348 88.766 12.6122V10.1052ZM88.8029 14.3265C88.8029 14.0008 88.7629 13.7213 88.6831 13.4878C88.6032 13.2481 88.4957 13.0546 88.3605 12.9071C88.2253 12.7535 88.0687 12.6429 87.8905 12.5753C87.7185 12.5016 87.5403 12.4647 87.356 12.4647C86.9074 12.4647 86.5634 12.6275 86.3238 12.9532C86.0841 13.2727 85.9643 13.7305 85.9643 14.3265C85.9643 14.9225 86.0841 15.3834 86.3238 15.709C86.5634 16.0285 86.9074 16.1883 87.356 16.1883C87.5403 16.1883 87.7185 16.1545 87.8905 16.0869C88.0687 16.0132 88.2253 15.9026 88.3605 15.7551C88.4957 15.6015 88.6032 15.4079 88.6831 15.1744C88.7629 14.9348 88.8029 14.6522 88.8029 14.3265Z" fill="white"/>
<path d="M93.9536 11.8288V16.7874H93.1149V11.8288H93.9536ZM93.9536 10.1052V11.1191H93.1149V10.1052H93.9536Z" fill="white"/>
<path d="M96.1226 12.5753C96.2639 12.3418 96.4605 12.1452 96.7124 11.9854C96.9705 11.8257 97.3084 11.7458 97.7262 11.7458C98.0272 11.7458 98.2791 11.7919 98.4819 11.8841C98.6908 11.9762 98.8598 12.1083 98.9888 12.2804C99.1178 12.4463 99.21 12.646 99.2653 12.8795C99.3267 13.113 99.3574 13.371 99.3574 13.6537V16.7874H98.5188V13.9025C98.5188 13.712 98.5065 13.5308 98.4819 13.3587C98.4573 13.1867 98.4082 13.0362 98.3344 12.9071C98.2607 12.7719 98.1501 12.6675 98.0027 12.5937C97.8614 12.5139 97.6709 12.4739 97.4313 12.4739C97.0258 12.4739 96.7063 12.6122 96.4728 12.8887C96.2393 13.159 96.1226 13.5615 96.1226 14.0961V16.7874H95.2839V11.8288H96.1226V12.5753Z" fill="white"/>
<rect x="0.600049" y="0.600049" width="142.8" height="46.8038" stroke="#646464" stroke-width="1.2001"/>
</svg>
