<svg width="144" height="48" viewBox="0 0 144 48" fill="none" xmlns="http://www.w3.org/2000/svg">
<path d="M12.9437 9.36475L12.8691 9.43818C12.894 9.41219 12.929 9.4009 12.955 9.37604L12.9437 9.36475Z" fill="#00E3FF"/>
<path d="M12.9448 34.8459L12.9561 34.8346C12.929 34.8109 12.894 34.7996 12.8691 34.7725L12.9448 34.8459Z" fill="#00E3FF"/>
<path d="M12.8695 11.2732C12.5735 11.5861 12.3984 12.0719 12.3984 12.7023V35.1878C12.3984 35.8181 12.5735 36.3028 12.8695 36.6157L25.5413 23.9439L12.8695 11.2732Z" fill="#00E3FF"/>
<path d="M34.8102 22.4652L29.835 19.6387H29.8339L25.541 23.9315L29.8339 28.2266L29.7378 28.282L29.8339 28.2278L34.8091 25.4013C36.2313 24.5935 36.2314 23.2729 34.8102 22.4652V22.4652Z" fill="#FFE000"/>
<path d="M25.541 23.936L12.8691 36.6079C12.894 36.635 12.929 36.6463 12.9561 36.67C13.4306 37.0948 14.157 37.1388 14.9817 36.67L29.7389 28.2865L29.8349 28.2311L25.541 23.936Z" fill="#FF3A44"/>
<path d="M25.541 23.9374L29.8338 19.6434L29.8349 19.6423L14.9817 11.2035C14.157 10.7346 13.4283 10.7787 12.955 11.2035C12.929 11.2283 12.894 11.2396 12.8691 11.2656L25.541 23.9374Z" fill="#00F076"/>
<path d="M63.2661 26.9475C60.8745 26.9475 58.9258 28.7652 58.9258 31.272C58.9258 33.7619 60.8745 35.5965 63.2661 35.5965C65.6577 35.5965 67.6064 33.7619 67.6064 31.272C67.6064 28.7663 65.6577 26.9475 63.2661 26.9475ZM63.2661 33.8929C61.9556 33.8929 60.8259 32.8118 60.8259 31.272C60.8259 29.7164 61.9556 28.6511 63.2661 28.6511C64.5765 28.6511 65.7062 29.7153 65.7062 31.272C65.7074 32.8118 64.5765 33.8929 63.2661 33.8929Z" fill="white"/>
<path d="M72.7348 26.9475C70.3433 26.9475 68.3945 28.7652 68.3945 31.272C68.3945 33.7619 70.3433 35.5965 72.7348 35.5965C75.1264 35.5965 77.0751 33.7619 77.0751 31.272C77.0763 28.7663 75.1264 26.9475 72.7348 26.9475ZM72.7348 33.8929C71.4244 33.8929 70.2947 32.8118 70.2947 31.272C70.2947 29.7164 71.4255 28.6511 72.7348 28.6511C74.0442 28.6511 75.175 29.7153 75.175 31.272C75.1761 32.8118 74.0453 33.8929 72.7348 33.8929Z" fill="white"/>
<path d="M114.08 22.627H112.184V35.3372H114.08V22.627Z" fill="white"/>
<path d="M52.0018 28.2795V30.113H56.3918C56.2608 31.1444 55.9174 31.8979 55.3921 32.4221C54.7538 33.0604 53.754 33.7653 52.0018 33.7653C49.2996 33.7653 47.1859 31.5872 47.1859 28.8839C47.1859 26.1805 49.2985 24.0024 52.0018 24.0024C53.4603 24.0024 54.5245 24.5763 55.3107 25.3129L56.6042 24.0194C55.5073 22.971 54.0489 22.1689 52.0018 22.1689C48.2998 22.1689 45.1875 25.183 45.1875 28.885C45.1875 32.587 48.2998 35.6011 52.0018 35.6011C54.0003 35.6011 55.5073 34.9458 56.6867 33.7179C57.8989 32.5057 58.2762 30.8021 58.2762 29.4261C58.2762 29.0002 58.2434 28.6071 58.1779 28.2795H52.0018Z" fill="white"/>
<path d="M118.744 26.9299C117.37 26.9299 115.948 27.5355 115.359 28.8764L117.043 29.5791C117.403 28.8764 118.074 28.6471 118.776 28.6471C119.757 28.6471 120.754 29.2356 120.771 30.2817V30.4128C120.428 30.2162 119.693 29.9225 118.793 29.9225C116.978 29.9225 115.131 30.92 115.131 32.784C115.131 34.4842 116.619 35.58 118.287 35.58C119.563 35.58 120.265 35.0073 120.707 34.3374H120.773V35.3179H122.604V30.4444C122.603 28.1884 120.918 26.9299 118.744 26.9299V26.9299ZM118.514 33.8957C117.893 33.8957 117.026 33.585 117.026 32.8168C117.026 31.8362 118.105 31.46 119.037 31.46C119.871 31.46 120.264 31.6396 120.77 31.8848C120.625 33.0619 119.61 33.8957 118.514 33.8957V33.8957Z" fill="white"/>
<path d="M127.1 32.7223H127.034L124.778 27.2117H122.734L126.119 34.914L124.189 39.1978H126.168L131.384 27.2117H129.274L127.1 32.7223Z" fill="white"/>
<path d="M84.3598 27.9134H84.2931C83.8672 27.4062 83.0482 26.9475 82.0168 26.9475C79.8545 26.9475 77.873 28.8477 77.873 31.2878C77.873 33.7121 79.8545 35.5954 82.0168 35.5954C83.0482 35.5954 83.8672 35.1367 84.2931 34.6125H84.3587V35.235C84.3587 36.8889 83.4741 37.7734 82.0495 37.7734C80.8871 37.7734 80.1663 36.9386 79.8715 36.2336L78.2176 36.9216C78.6921 38.0683 79.954 39.477 82.0507 39.477C84.2784 39.477 86.1616 38.1665 86.1616 34.9729V27.2085H84.3598V27.9134ZM82.1795 33.8918C80.869 33.8918 79.7721 32.7948 79.7721 31.2878C79.7721 29.765 80.8701 28.6511 82.1795 28.6511C83.473 28.6511 84.4886 29.765 84.4886 31.2878C84.4897 32.7948 83.4741 33.8918 82.1795 33.8918Z" fill="white"/>
<path d="M106.968 22.627H102.422V35.3372H104.319V30.5213H106.968C109.071 30.5213 111.137 28.9985 111.137 26.5741C111.137 24.1498 109.071 22.627 106.968 22.627ZM107.017 28.7522H104.319V24.3949H107.016C108.435 24.3949 109.241 25.5698 109.241 26.573C109.241 27.5592 108.435 28.7522 107.017 28.7522Z" fill="white"/>
<path d="M89.3709 22.627H87.4707V35.3372H89.3709V22.627Z" fill="white"/>
<path d="M98.0693 29.6995C97.7089 28.7336 96.612 26.9475 94.3673 26.9475C92.1395 26.9475 90.2891 28.6997 90.2891 31.272C90.2891 33.6963 92.1237 35.5965 94.5808 35.5965C96.5623 35.5965 97.7089 34.3843 98.1845 33.6805L96.7103 32.6977C96.2188 33.4184 95.5478 33.8929 94.5808 33.8929C93.6138 33.8929 92.9269 33.4501 92.4841 32.5824L98.2659 30.1909L98.0693 29.6995ZM92.1723 31.1409C92.1226 29.4701 93.4658 28.6183 94.4328 28.6183C95.1863 28.6183 95.8257 28.9945 96.0381 29.5356L92.1723 31.1409Z" fill="white"/>
<path d="M50.1762 14.5894C50.1762 14.0572 50.1039 13.6321 49.9593 13.314C49.8147 12.9958 49.6239 12.7558 49.3867 12.5939C49.1496 12.4261 48.8777 12.3191 48.5712 12.2728C48.2646 12.2208 47.9494 12.1948 47.6255 12.1948H46.8186V16.9926H47.6255C47.9494 16.9926 48.2646 16.9695 48.5712 16.9232C48.8777 16.8712 49.1496 16.7613 49.3867 16.5935C49.6239 16.4258 49.8147 16.1858 49.9593 15.8734C50.1039 15.5553 50.1762 15.1273 50.1762 14.5894ZM47.6515 11.4486C48.1489 11.4486 48.6059 11.5007 49.0223 11.6048C49.4446 11.7089 49.8061 11.8824 50.1068 12.1253C50.4134 12.3683 50.6505 12.6922 50.8183 13.0971C50.9918 13.4962 51.0786 13.9936 51.0786 14.5894C51.0786 15.1909 50.9918 15.6941 50.8183 16.099C50.6505 16.4981 50.4134 16.8191 50.1068 17.062C49.8061 17.305 49.4446 17.4785 49.0223 17.5826C48.6059 17.6867 48.1489 17.7388 47.6515 17.7388H45.9336V11.4486H47.6515ZM52.6877 15.4223C52.6877 15.7346 52.7224 16.0007 52.7918 16.2205C52.867 16.4402 52.9653 16.6196 53.0868 16.7584C53.2141 16.8972 53.3615 16.9984 53.5293 17.062C53.697 17.1257 53.8734 17.1575 54.0585 17.1575C54.2436 17.1575 54.42 17.1228 54.5878 17.0534C54.7555 16.984 54.9001 16.8798 55.0216 16.741C55.1488 16.5964 55.2471 16.4171 55.3166 16.2031C55.3917 15.9833 55.4293 15.723 55.4293 15.4223C55.4293 15.1099 55.3917 14.8438 55.3166 14.6241C55.2471 14.4043 55.1488 14.225 55.0216 14.0861C54.9001 13.9473 54.7555 13.8461 54.5878 13.7825C54.42 13.7189 54.2436 13.687 54.0585 13.687C53.8734 13.687 53.697 13.7189 53.5293 13.7825C53.3615 13.8403 53.2141 13.9386 53.0868 14.0775C52.9653 14.2163 52.867 14.3956 52.7918 14.6154C52.7224 14.8352 52.6877 15.1041 52.6877 15.4223ZM51.8461 15.4223C51.8461 15 51.9069 14.6356 52.0283 14.3291C52.1556 14.0225 52.3233 13.7709 52.5315 13.5742C52.7398 13.3776 52.9769 13.233 53.243 13.1404C53.509 13.0421 53.7809 12.993 54.0585 12.993C54.3362 12.993 54.608 13.0421 54.8741 13.1404C55.1401 13.233 55.3773 13.3776 55.5855 13.5742C55.7937 13.7709 55.9586 14.0225 56.0801 14.3291C56.2073 14.6356 56.2709 15 56.2709 15.4223C56.2709 15.8445 56.2073 16.2089 56.0801 16.5154C55.9586 16.822 55.7937 17.0736 55.5855 17.2703C55.3773 17.4669 55.1401 17.6144 54.8741 17.7127C54.608 17.8053 54.3362 17.8516 54.0585 17.8516C53.7809 17.8516 53.509 17.8053 53.243 17.7127C52.9769 17.6144 52.7398 17.4669 52.5315 17.2703C52.3233 17.0736 52.1556 16.822 52.0283 16.5154C51.9069 16.2089 51.8461 15.8445 51.8461 15.4223ZM59.2651 13.071H60.0806L61.0089 16.5241L61.9026 13.071H62.7528L61.408 17.7388H60.6879L59.6555 13.982L58.6577 17.7388H57.9376L56.5928 13.071H57.4431L58.3367 16.5241L59.2651 13.071ZM64.2081 13.7738C64.3411 13.554 64.5262 13.3689 64.7633 13.2185C65.0063 13.0681 65.3244 12.993 65.7177 12.993C66.0011 12.993 66.2383 13.0363 66.4291 13.1231C66.6258 13.2099 66.7848 13.3342 66.9063 13.4962C67.0278 13.6523 67.1145 13.8403 67.1666 14.0601C67.2244 14.2799 67.2534 14.5228 67.2534 14.7889V17.7388H66.4638V15.0232C66.4638 14.8438 66.4523 14.6732 66.4291 14.5113C66.406 14.3493 66.3597 14.2076 66.2903 14.0861C66.2209 13.9589 66.1168 13.8606 65.978 13.7912C65.8449 13.716 65.6656 13.6784 65.4401 13.6784C65.0583 13.6784 64.7575 13.8085 64.5377 14.0688C64.3179 14.3233 64.2081 14.7021 64.2081 15.2054V17.7388H63.4185V13.071H64.2081V13.7738ZM69.2239 17.7388H68.4344V11.4486H69.2239V17.7388ZM71.0142 15.4223C71.0142 15.7346 71.0489 16.0007 71.1183 16.2205C71.1935 16.4402 71.2919 16.6196 71.4133 16.7584C71.5406 16.8972 71.6881 16.9984 71.8558 17.062C72.0236 17.1257 72.2 17.1575 72.3851 17.1575C72.5701 17.1575 72.7466 17.1228 72.9143 17.0534C73.082 16.984 73.2266 16.8798 73.3481 16.741C73.4753 16.5964 73.5737 16.4171 73.6431 16.2031C73.7183 15.9833 73.7559 15.723 73.7559 15.4223C73.7559 15.1099 73.7183 14.8438 73.6431 14.6241C73.5737 14.4043 73.4753 14.225 73.3481 14.0861C73.2266 13.9473 73.082 13.8461 72.9143 13.7825C72.7466 13.7189 72.5701 13.687 72.3851 13.687C72.2 13.687 72.0236 13.7189 71.8558 13.7825C71.6881 13.8403 71.5406 13.9386 71.4133 14.0775C71.2919 14.2163 71.1935 14.3956 71.1183 14.6154C71.0489 14.8352 71.0142 15.1041 71.0142 15.4223ZM70.1727 15.4223C70.1727 15 70.2334 14.6356 70.3549 14.3291C70.4821 14.0225 70.6498 13.7709 70.8581 13.5742C71.0663 13.3776 71.3034 13.233 71.5695 13.1404C71.8356 13.0421 72.1074 12.993 72.3851 12.993C72.6627 12.993 72.9345 13.0421 73.2006 13.1404C73.4667 13.233 73.7038 13.3776 73.912 13.5742C74.1203 13.7709 74.2851 14.0225 74.4066 14.3291C74.5338 14.6356 74.5975 15 74.5975 15.4223C74.5975 15.8445 74.5338 16.2089 74.4066 16.5154C74.2851 16.822 74.1203 17.0736 73.912 17.2703C73.7038 17.4669 73.4667 17.6144 73.2006 17.7127C72.9345 17.8053 72.6627 17.8516 72.3851 17.8516C72.1074 17.8516 71.8356 17.8053 71.5695 17.7127C71.3034 17.6144 71.0663 17.4669 70.8581 17.2703C70.6498 17.0736 70.4821 16.822 70.3549 16.5154C70.2334 16.2089 70.1727 15.8445 70.1727 15.4223ZM78.4929 15.4917C78.1343 15.5264 77.8104 15.5697 77.5212 15.6218C77.232 15.6681 76.9861 15.7288 76.7837 15.804C76.5813 15.8734 76.4251 15.966 76.3152 16.0816C76.2053 16.1915 76.1503 16.3275 76.1503 16.4894C76.1503 16.7092 76.2284 16.8885 76.3846 17.0273C76.5465 17.1604 76.7692 17.2269 77.0527 17.2269C77.2377 17.2269 77.417 17.2037 77.5906 17.1575C77.7641 17.1054 77.9174 17.0215 78.0504 16.9059C78.1834 16.7844 78.2904 16.6224 78.3714 16.42C78.4524 16.2176 78.4929 15.9602 78.4929 15.6478V15.4917ZM76.8791 17.8516C76.6593 17.8516 76.4511 17.8197 76.2545 17.7561C76.0636 17.6983 75.893 17.6144 75.7426 17.5045C75.598 17.3888 75.4823 17.25 75.3955 17.0881C75.3145 16.9203 75.2741 16.7323 75.2741 16.5241C75.2741 16.2465 75.3492 16.0151 75.4996 15.83C75.65 15.6392 75.8611 15.483 76.133 15.3615C76.4106 15.2343 76.7432 15.1331 77.1307 15.0579C77.5183 14.9827 77.9521 14.919 78.4322 14.867V14.7368C78.4322 14.5171 78.4032 14.3349 78.3454 14.1903C78.2933 14.0456 78.2181 13.9329 78.1198 13.8519C78.0215 13.7651 77.9058 13.7044 77.7728 13.6697C77.6397 13.635 77.498 13.6176 77.3476 13.6176C76.9832 13.6176 76.7085 13.7015 76.5234 13.8692C76.3383 14.0312 76.2371 14.2568 76.2197 14.546H75.4042C75.4215 14.2973 75.4881 14.0746 75.6037 13.8779C75.7194 13.6813 75.8669 13.5164 76.0462 13.3834C76.2255 13.2503 76.428 13.1491 76.6536 13.0797C76.8791 13.0103 77.1134 12.9756 77.3563 12.9756C78.0041 12.9756 78.4784 13.126 78.7792 13.4268C79.08 13.7275 79.2275 14.2134 79.2217 14.8843L79.213 15.9775C79.2072 16.3708 79.213 16.7092 79.2304 16.9926C79.2535 17.2703 79.2882 17.519 79.3345 17.7388H78.5363C78.5247 17.652 78.5131 17.5508 78.5016 17.4351C78.49 17.3194 78.4813 17.1922 78.4755 17.0534C78.3309 17.2963 78.1314 17.4901 77.8769 17.6347C77.6282 17.7793 77.2956 17.8516 76.8791 17.8516ZM83.5649 11.4486H84.3544V17.7388H83.5649V17.036C83.4203 17.2847 83.2236 17.4843 82.9749 17.6347C82.7262 17.7793 82.4138 17.8516 82.0379 17.8516C81.7602 17.8516 81.5029 17.7995 81.2657 17.6954C81.0286 17.5855 80.8203 17.4264 80.641 17.2182C80.4617 17.01 80.32 16.7555 80.2159 16.4547C80.1176 16.1539 80.0684 15.8098 80.0684 15.4223C80.0684 15.0405 80.1176 14.6992 80.2159 14.3985C80.32 14.0977 80.4617 13.8432 80.641 13.635C80.8203 13.4268 81.0286 13.2677 81.2657 13.1578C81.5029 13.0479 81.7602 12.993 82.0379 12.993C82.4138 12.993 82.7262 13.0681 82.9749 13.2185C83.2236 13.3631 83.4203 13.5598 83.5649 13.8085V11.4486ZM83.5996 15.4223C83.5996 15.1157 83.562 14.8525 83.4868 14.6327C83.4116 14.4072 83.3104 14.225 83.1831 14.0861C83.0559 13.9415 82.9084 13.8374 82.7406 13.7738C82.5787 13.7044 82.4109 13.6697 82.2374 13.6697C81.8152 13.6697 81.4913 13.823 81.2657 14.1295C81.0401 14.4303 80.9273 14.8612 80.9273 15.4223C80.9273 15.9833 81.0401 16.4171 81.2657 16.7237C81.4913 17.0244 81.8152 17.1748 82.2374 17.1748C82.4109 17.1748 82.5787 17.143 82.7406 17.0794C82.9084 17.01 83.0559 16.9059 83.1831 16.767C83.3104 16.6224 83.4116 16.4402 83.4868 16.2205C83.562 15.9949 83.5996 15.7288 83.5996 15.4223ZM88.4486 13.071V17.7388H87.659V13.071H88.4486ZM88.4486 11.4486V12.403H87.659V11.4486H88.4486ZM90.4905 13.7738C90.6235 13.554 90.8086 13.3689 91.0458 13.2185C91.2887 13.0681 91.6068 12.993 92.0001 12.993C92.2835 12.993 92.5207 13.0363 92.7116 13.1231C92.9082 13.2099 93.0673 13.3342 93.1887 13.4962C93.3102 13.6523 93.397 13.8403 93.449 14.0601C93.5069 14.2799 93.5358 14.5228 93.5358 14.7889V17.7388H92.7463V15.0232C92.7463 14.8438 92.7347 14.6732 92.7116 14.5113C92.6884 14.3493 92.6422 14.2076 92.5727 14.0861C92.5033 13.9589 92.3992 13.8606 92.2604 13.7912C92.1274 13.716 91.9481 13.6784 91.7225 13.6784C91.3407 13.6784 91.04 13.8085 90.8202 14.0688C90.6004 14.3233 90.4905 14.7021 90.4905 15.2054V17.7388H89.701V13.071H90.4905V13.7738Z" fill="white"/>
<rect x="0.5" y="0.5" width="143" height="47" stroke="#646464"/>
</svg>
