<svg width="40" height="40" viewBox="0 0 40 40" fill="none" xmlns="http://www.w3.org/2000/svg">
<path d="M2.5 37.4V31.88C4.26 31.56 5.7 30.8 6.82 29.6C7.94 28.32 8.74 26.76 9.22 24.92C9.7 23.08 9.94 21.08 9.94 18.92H3.58V5H17.02V17.6C17.02 22.16 16.3 25.84 14.86 28.64C13.42 31.36 11.58 33.4 9.34 34.76C7.18 36.04 4.9 36.92 2.5 37.4ZM23.86 37.4V31.88C25.54 31.56 26.94 30.8 28.06 29.6C29.18 28.32 29.98 26.76 30.46 24.92C31.02 23.08 31.3 21.08 31.3 18.92H24.82V5H38.26V17.6C38.26 22.16 37.54 25.84 36.1 28.64C34.66 31.36 32.82 33.4 30.58 34.76C28.42 36.04 26.18 36.92 23.86 37.4Z" fill="white"/>
</svg>
