<svg width="24" height="24" viewBox="0 0 24 24" fill="none" xmlns="http://www.w3.org/2000/svg">
<path fill-rule="evenodd" clip-rule="evenodd" d="M21.0146 8.2872V8.2911C21.5021 9.465 21.75 10.7124 21.75 12C21.75 17.3748 17.3748 21.75 12 21.75C6.62524 21.75 2.25 17.3748 2.25 12C2.25 6.62524 6.62524 2.25 12 2.25C13.0156 2.25 14.0192 2.40823 14.9745 2.71744C14.9785 2.71744 14.9785 2.72134 14.9785 2.72134H14.9907C15.0044 2.72601 15.0154 2.7343 15.0269 2.74286L15.0376 2.7508L15.0423 2.75401L15.0474 2.75735L15.0502 2.75895L15.0559 2.76201C15.0765 2.77427 15.101 2.77817 15.1211 2.79433L15.1219 2.79677C15.1219 2.79677 15.1233 2.79823 15.1249 2.79823C15.1469 2.82058 15.1627 2.84294 15.1806 2.86822L15.1857 2.87567C15.1882 2.87881 15.1907 2.8818 15.1933 2.88472L15.1989 2.89106C15.2041 2.89663 15.2091 2.90228 15.2135 2.90847C15.217 2.91321 15.2201 2.91836 15.2225 2.92414C15.2291 2.93556 15.2332 2.94803 15.2364 2.96105L15.238 2.9683L15.2399 2.97714L15.2426 2.99323L15.2463 3.00347L15.2504 3.01412L15.2507 3.01489C15.2574 3.03244 15.2643 3.05061 15.2671 3.07067C15.2671 3.07729 15.2663 3.08404 15.2654 3.09108V3.09428C15.2643 3.1034 15.2632 3.11301 15.2632 3.1236C15.2632 3.16037 15.2594 3.19269 15.2509 3.22946V3.23336C15.2463 3.24701 15.238 3.25947 15.23 3.27131C15.2238 3.28071 15.2178 3.2897 15.2142 3.29854C15.2019 3.32306 15.1935 3.34757 15.1774 3.36763C14.6569 4.00166 14.3729 4.79391 14.3729 5.60623C14.3729 7.55177 15.9568 9.13629 17.9029 9.13629C18.8211 9.13629 19.6903 8.78306 20.3526 8.14123C20.3581 8.1367 20.3636 8.1328 20.3691 8.12932C20.377 8.12431 20.3849 8.12013 20.3927 8.11595C20.3997 8.11226 20.4066 8.10864 20.4134 8.10446C20.4379 8.0883 20.4541 8.07214 20.4787 8.05989H20.4869C20.5154 8.04819 20.5482 8.04373 20.5806 8.03983C20.6006 8.03983 20.6213 8.02757 20.6413 8.03147C20.6658 8.03147 20.6859 8.03983 20.7103 8.04373C20.7388 8.04763 20.7672 8.05153 20.7917 8.05989C20.8023 8.06504 20.8112 8.07207 20.8206 8.07973L20.8258 8.08405L20.8364 8.0922C20.8687 8.10836 20.897 8.12451 20.9254 8.14903C20.9254 8.1514 20.9263 8.15272 20.9263 8.15272C20.9263 8.15272 20.9278 8.15293 20.9293 8.15293C20.9455 8.17299 20.9577 8.1975 20.97 8.22201C20.9822 8.24207 21.0023 8.25433 21.0107 8.27884C21.0107 8.28128 21.0114 8.28351 21.0114 8.28351L21.0126 8.28511L21.0146 8.2872ZM5.09366 13.2185C5.09366 14.1166 5.82136 14.8437 6.71884 14.8437C7.6164 14.8437 8.34403 14.1166 8.34403 13.2185C8.34403 12.3204 7.6164 11.5933 6.71884 11.5933C5.82073 11.5933 5.09366 12.3209 5.09366 13.2185ZM9.15579 6.31213C8.48554 6.31213 7.93732 6.86091 7.93732 7.53116C7.93732 8.2014 8.4861 8.75019 9.15579 8.74963C9.82659 8.74963 10.3748 8.2014 10.3748 7.53116C10.3748 6.86036 9.82603 6.31213 9.15579 6.31213ZM11.5938 17.2812C11.5938 17.952 12.1421 18.5002 12.8123 18.5002C13.4826 18.5002 14.0313 17.9514 14.0313 17.2812C14.0313 16.6109 13.4826 16.0627 12.8123 16.0627C12.1421 16.0627 11.5938 16.6109 11.5938 17.2812ZM12 11.7966C12 12.6948 12.7277 13.4218 13.6252 13.4218C14.5227 13.4218 15.2498 12.6948 15.2504 11.7966C15.2504 10.8985 14.5227 10.1715 13.6252 10.1715C12.7271 10.1715 12 10.8991 12 11.7966Z" fill="white"/>
</svg>
