<svg width="1541" height="821" viewBox="0 0 1541 821" fill="none" xmlns="http://www.w3.org/2000/svg">
<g opacity="0.12">
<path d="M0.599467 191.416V3.52905L188.17 191.416H0.599467Z" stroke="white" stroke-width="1.19893"/>
<path d="M290.703 189.337V1.76669L478.431 189.337H290.703Z" stroke="white" stroke-width="1.19893"/>
<path d="M290.703 378.952V191.382L478.431 378.952H290.703Z" stroke="white" stroke-width="1.19893"/>
<path d="M290.016 568.539H102.446L290.016 380.811V568.539Z" stroke="white" stroke-width="1.19893"/>
<path d="M580.28 566.459H392.552L580.28 378.889V566.459Z" stroke="white" stroke-width="1.19893"/>
<path d="M580.28 756.075H392.552L580.28 568.505V756.075Z" stroke="white" stroke-width="1.19893"/>
<path d="M581.127 379.112V191.384L768.697 379.112H581.127Z" stroke="white" stroke-width="1.19893"/>
<path d="M581.127 189.336V1.44897L768.698 189.336H581.127Z" stroke="white" stroke-width="1.19893"/>
<path d="M1350.58 820.395H1163.01L1350.58 632.508V820.395Z" stroke="white" stroke-width="1.19893"/>
<path d="M1540.2 820.395H1352.63L1540.2 632.508V820.395Z" stroke="white" stroke-width="1.19893"/>
<path d="M1350.58 630.46H1163.01L1350.58 442.731V630.46Z" stroke="white" stroke-width="1.19893"/>
<path d="M1540.2 630.46H1352.63L1540.2 442.731V630.46Z" stroke="white" stroke-width="1.19893"/>
</g>
</svg>
