<svg width="180" height="48" viewBox="0 0 180 48" fill="none" xmlns="http://www.w3.org/2000/svg">
<g clip-path="url(#clip0_54100_38247)">
<path d="M148.375 38.9176C148.098 38.5727 147.932 38.2278 147.932 37.7679C147.932 37.308 148.098 36.9631 148.375 36.6757C148.652 36.3883 149.039 36.2158 149.482 36.2158C149.925 36.2158 150.258 36.3883 150.59 36.6757C150.867 36.9631 151.033 37.3655 151.033 37.7679C151.033 38.2278 150.867 38.5727 150.59 38.9176C150.313 39.2625 149.925 39.3775 149.538 39.3775C149.039 39.3775 148.652 39.205 148.375 38.9176Z" fill="#0B0B0B"/>
<path d="M156.794 38.6868C155.963 38.2269 155.354 37.6521 154.911 36.9048C154.468 36.1575 154.246 35.4102 154.246 34.6054V34.4904H156.517V34.6054C156.517 35.0653 156.628 35.5251 156.905 35.9275C157.126 36.3874 157.514 36.7323 158.012 37.0198C158.511 37.3072 159.12 37.4221 159.785 37.4221C160.615 37.4221 161.335 37.1922 161.889 36.7898C162.443 36.3874 162.72 35.7551 162.72 35.0078C162.72 34.3754 162.498 33.9156 162.055 33.5132C161.612 33.1683 161.114 32.9383 160.449 32.8233L158.621 32.5359C157.458 32.3635 156.517 31.9611 155.741 31.3287C154.966 30.6964 154.578 29.7766 154.578 28.5695C154.578 27.2473 155.021 26.2126 155.963 25.4653C156.905 24.718 158.068 24.373 159.508 24.373C160.56 24.373 161.501 24.603 162.221 25.0054C162.997 25.4078 163.551 25.9251 163.938 26.615C164.326 27.3048 164.548 27.9946 164.548 28.7994V28.9144H162.277V28.8569C162.277 28.512 162.166 28.1096 162 27.7072C161.834 27.3048 161.501 26.9599 161.058 26.6724C160.615 26.385 160.061 26.2126 159.397 26.2126C158.566 26.2126 157.901 26.4425 157.403 26.8449C156.905 27.2473 156.628 27.8221 156.628 28.512C156.628 29.0868 156.849 29.5467 157.237 29.8916C157.625 30.2365 158.123 30.4665 158.732 30.5814L160.671 30.9263C161.834 31.0988 162.775 31.5587 163.606 32.191C164.381 32.8233 164.769 33.7431 164.769 34.9503C164.769 35.8126 164.548 36.5599 164.105 37.2497C163.661 37.882 163.052 38.3994 162.277 38.7443C161.501 39.0892 160.615 39.2617 159.618 39.2617C158.621 39.3766 157.625 39.1467 156.794 38.6868Z" fill="#0B0B0B"/>
<path d="M169.643 38.3997C168.757 37.7673 168.092 36.8476 167.649 35.7553C167.206 34.6056 166.984 33.341 166.984 31.9613C166.984 30.5242 167.206 29.2595 167.704 28.1098C168.147 26.9601 168.812 26.0979 169.698 25.4655C170.584 24.8332 171.637 24.4883 172.855 24.4883C174.074 24.4883 175.071 24.7757 175.791 25.408C176.566 25.9829 177.12 26.7302 177.507 27.535H177.674V24.8907H179.944V39.2044H177.674V36.2152H177.507C177.064 37.0775 176.511 37.8248 175.735 38.3997C174.96 39.032 173.963 39.3194 172.8 39.3194C171.581 39.3769 170.529 39.032 169.643 38.3997ZM176.566 35.8128C177.286 34.7781 177.618 33.4559 177.618 31.9613C177.618 30.4092 177.286 29.1446 176.566 28.1098C175.846 27.0751 174.794 26.5577 173.464 26.5577C172.08 26.5577 171.027 27.0751 170.307 28.1098C169.587 29.1446 169.255 30.4092 169.255 31.9613C169.255 33.5134 169.587 34.8356 170.307 35.8703C171.027 36.905 172.08 37.4224 173.464 37.4224C174.849 37.3649 175.901 36.8476 176.566 35.8128Z" fill="#0B0B0B"/>
<path d="M18.3877 20.464L13.1262 19.7742C10.1354 19.3718 9.36 18.4521 9.36 17.0724C9.36 15.4054 10.5785 14.4856 12.8492 14.4856C16.5046 14.4856 17.4462 15.4628 17.7785 18.3946L25.3662 16.5551C24.5908 12.0712 21.6 8.21973 12.5723 8.21973C4.81846 8.21973 0.443077 11.5539 0.443077 17.5323C0.443077 22.591 3.21231 25.9826 8.80615 26.8449L13.2923 27.5347C16.6708 27.9946 17.5015 28.9143 17.5015 30.5239C17.5015 32.1335 15.7846 33.1107 13.5692 33.1107C10.3569 33.1107 8.52923 32.306 8.19692 28.7994L0 30.9838C0.553846 35.2952 4.98462 39.8365 13.0708 39.8365C21.6554 39.8365 26.4738 36.1 26.4738 29.5467C26.4185 24.5455 23.4831 21.1539 18.3877 20.464Z" fill="#0B0B0B"/>
<path d="M57.5439 23.7407C57.5439 14.3706 51.7839 8.21973 43.1992 8.21973C34.2823 8.21973 28.3008 14.6581 28.3008 24.2581C28.3008 33.6281 34.3931 39.8365 43.4762 39.8365C50.51 39.8365 54.8854 36.9622 56.8792 31.7311L49.2916 28.9143C47.9069 31.8461 46.5223 32.7658 43.7531 32.7658C39.9869 32.7658 38.1592 31.0413 37.6054 26.9024H57.4885C57.5439 25.5802 57.5439 24.7754 57.5439 23.7407ZM37.55 20.9239C38.0485 16.67 39.7654 14.9455 43.3654 14.9455C46.9654 14.9455 48.6823 16.4976 48.7377 20.9239H37.55Z" fill="#0B0B0B"/>
<path d="M78.4243 16.9006V8.85269H70.3381L61.4766 18.0503V28.8575C61.4766 35.0659 65.4643 39.2048 71.4458 39.2048H77.8704V31.1569H70.3381V16.9006H78.4243ZM61.4766 8.79521H70.3381V0H61.4766V8.79521Z" fill="#0B0B0B"/>
<path d="M101.907 8.7959V23.5696C101.907 29.0306 99.6915 31.3875 96.1469 31.3875C92.8792 31.3875 91.2177 29.663 91.2177 25.9839V8.7959H82.3008V26.5588C82.3008 35.469 85.6239 39.8378 92.6023 39.8378C97.4208 39.8378 100.467 37.366 101.852 32.3648V39.2055H110.713V8.7959H101.907Z" fill="#0B0B0B"/>
<path d="M134.971 8.21973C129.986 8.21973 126.442 10.864 124.725 15.8652V8.79458H115.863V47.9994H124.725V32.3634C126.386 37.1922 129.709 39.779 134.362 39.779C142.725 39.779 147.377 33.4557 147.377 24.0281C147.377 14.4856 143.002 8.21973 134.971 8.21973ZM131.537 31.3862C126.663 31.3862 124.393 29.0293 124.393 24.0281C124.393 18.9119 126.663 16.5551 131.537 16.5551C136.245 16.5551 138.46 18.9119 138.46 24.0281C138.46 29.0293 136.245 31.3862 131.537 31.3862Z" fill="#0B0B0B"/>
</g>
<defs>
<clipPath id="clip0_54100_38247">
<rect width="180" height="48" fill="white"/>
</clipPath>
</defs>
</svg>
