<svg width="40" height="40" viewBox="0 0 40 40" fill="none" xmlns="http://www.w3.org/2000/svg">
<rect width="40" height="40" fill="white"/>
<path fill-rule="evenodd" clip-rule="evenodd" d="M5 36.25C5 26.585 11.4608 18.75 19.4306 18.75H27.5V20.296C27.5 24.7526 23.8872 28.3654 19.4306 28.3654V28.3654C15.8398 28.3654 12.9289 31.8954 12.9289 36.25H5Z" fill="#2D9851"/>
<path fill-rule="evenodd" clip-rule="evenodd" d="M5 32.305C5 20.6766 13.9958 11.25 25.0928 11.25L30 11.25V14.7648C30 17.4749 27.803 19.672 25.0928 19.672V19.672C18.4346 19.672 13.0371 25.328 13.0371 32.305V35H5V32.305Z" fill="#3A5A45"/>
<path fill-rule="evenodd" clip-rule="evenodd" d="M4.77539 24.6716C4.77539 13.1169 14.064 3.75 25.522 3.75H36.4762V3.75C36.4762 8.37186 32.7295 12.1186 28.1076 12.1186H25.522C18.6472 12.1186 13.074 17.7388 13.074 24.6716V34.9135C13.074 35.8037 12.3524 36.5254 11.4621 36.5254H6.3873C5.49707 36.5254 4.77539 35.8037 4.77539 34.9135L4.77539 24.6716Z" fill="#0B0B0B"/>
</svg>
