<svg width="40" height="40" viewBox="0 0 40 40" fill="none" xmlns="http://www.w3.org/2000/svg">
<g clip-path="url(#clip0_54621_39343)">
<rect width="40" height="40" fill="white"/>
<path d="M32.1894 19.9716L37.2081 24.9903C38.86 26.6422 38.86 29.3204 37.2081 30.9723C35.5633 32.6171 32.899 32.6252 31.2443 30.9903L21.6408 21.502C21.2399 21.1059 21.014 20.566 21.0132 20.0025C21.0125 19.4389 21.2371 18.8984 21.6369 18.5013L31.2423 8.96245C32.8948 7.32141 35.5633 7.32604 37.2101 8.97281C38.8609 10.6236 38.8609 13.3001 37.2101 14.951L32.1894 19.9716Z" fill="#C6C6C6" stroke="white" stroke-width="4.22353" stroke-linejoin="round"/>
<path d="M7.31614 8.01715L14.1477 9.84768L15.982 3.00208C16.5881 0.740002 18.9133 -0.602415 21.1753 0.00370674C23.412 0.603019 24.7543 2.8858 24.1907 5.13171L20.8007 18.6394C20.6604 19.1988 20.2973 19.6764 19.7958 19.9614C19.2944 20.2463 18.6982 20.3138 18.1457 20.1481L4.99239 16.2024C2.78863 15.5413 1.50958 13.2482 2.10507 11.0258C2.71326 8.75597 5.04633 7.40896 7.31614 8.01715Z" fill="#C6C6C6" stroke="white" stroke-width="4.22353" stroke-linejoin="round"/>
<path d="M15.9873 37.0136L14.1487 30.1517L7.28688 31.9904C5.03377 32.5941 2.71785 31.257 2.11413 29.0039C1.51041 26.7508 2.84751 24.4349 5.10062 23.8311L18.0819 20.3528C19.2084 20.051 20.3664 20.7195 20.6683 21.8461L24.1466 34.8273C24.7503 37.0804 23.4132 39.3963 21.1601 40.0001C18.907 40.6038 16.5911 39.2667 15.9873 37.0136Z" fill="#C6C6C6" stroke="white" stroke-width="4.22353" stroke-linejoin="round"/>
<path d="M17.2538 20.061L13.7269 23.7566L18.4783 22.4368L20.0622 28.2441L21.646 22.4368L27.1894 24.0206L23.2298 20.061L27.1894 16.1015L21.876 17.4999L20.0622 11.8779L18.7423 17.6853L13.4629 16.1015L17.2538 20.061Z" fill="#F8F8F8"/>
<path fill-rule="evenodd" clip-rule="evenodd" d="M34.6477 14.1291C35.7743 13.8272 36.4428 12.6692 36.141 11.5427V11.5427C35.8391 10.4161 34.6812 9.74758 33.5546 10.0494L24.653 12.4346L22.2678 3.53299C21.9659 2.40643 20.808 1.73788 19.6814 2.03974V2.03974C18.5548 2.3416 17.8863 3.49956 18.1882 4.62611L21.6665 17.6074L34.6477 14.1291Z" fill="#0B0B0B"/>
<path fill-rule="evenodd" clip-rule="evenodd" d="M7.88378 10.5909C7.05908 9.76621 5.72199 9.7662 4.89729 10.5909V10.5909C4.07259 11.4156 4.0726 12.7527 4.89729 13.5774L11.4137 20.0938L4.89729 26.6103C4.0726 27.435 4.0726 28.7721 4.89729 29.5968V29.5968C5.72199 30.4215 7.05908 30.4215 7.88378 29.5968L17.3867 20.0938L7.88378 10.5909Z" fill="#3A5A45"/>
<path fill-rule="evenodd" clip-rule="evenodd" d="M18.1892 35.3738C17.8873 36.5003 18.5559 37.6583 19.6824 37.9602V37.9602C20.809 38.262 21.9669 37.5935 22.2688 36.4669L24.654 27.5653L33.5556 29.9505C34.6822 30.2523 35.8402 29.5838 36.142 28.4572V28.4572C36.4439 27.3307 35.7753 26.1727 34.6488 25.8709L21.6675 22.3925L18.1892 35.3738Z" fill="#2D9851"/>
</g>
<defs>
<clipPath id="clip0_54621_39343">
<rect width="40" height="40" fill="white"/>
</clipPath>
</defs>
</svg>
