<svg width="40" height="40" viewBox="0 0 40 40" fill="none" xmlns="http://www.w3.org/2000/svg">
<g clip-path="url(#clip0_54626_39359)">
<rect width="40" height="40" fill="white"/>
<rect x="1.21875" y="11.6426" width="6.44178" height="30.8011" rx="3.22089" transform="rotate(-30 1.21875 11.6426)" fill="#3A5A45"/>
<rect x="20.7988" y="5.12598" width="6.44178" height="26.6556" rx="3.22089" transform="rotate(-30 20.7988 5.12598)" fill="#646464"/>
<rect x="6.51172" y="20.8115" width="6.44178" height="30.4661" rx="3.22089" transform="rotate(-120 6.51172 20.8115)" fill="#0B0B0B"/>
<path d="M23.1999 33.5609C20.589 35.5907 16.9122 38.8246 15.2586 35.9606V35.9606C15.1664 35.8008 15.0894 35.6364 15.0272 35.4691C13.9938 32.6895 17.2898 30.2223 19.5809 28.3395C20.7597 27.3709 22.3243 26.2501 24.3625 25.0734C26.4007 23.8966 28.1536 23.1019 29.5819 22.5654C32.358 21.5227 36.1426 19.9018 38.0332 22.1866C38.147 22.3241 38.2508 22.473 38.3431 22.6328V22.6328C39.9966 25.4968 35.3576 27.0641 32.2942 28.3103C30.9904 28.8407 29.4214 29.591 27.5834 30.6521C25.7454 31.7133 24.3112 32.6969 23.1999 33.5609Z" fill="#2D9851"/>
<rect x="1.2207" y="11.6484" width="6.44178" height="17.6583" rx="3.22089" transform="rotate(-30 1.2207 11.6484)" fill="#3A5A45"/>
<rect x="26.2891" y="14.6396" width="6.44178" height="15.6705" rx="3.22089" transform="rotate(-30 26.2891 14.6396)" fill="#646464"/>
</g>
<defs>
<clipPath id="clip0_54626_39359">
<rect width="40" height="40" fill="white"/>
</clipPath>
</defs>
</svg>
