<svg width="1440" height="808" viewBox="0 0 1440 808" fill="none" xmlns="http://www.w3.org/2000/svg">
<g opacity="0.12">
<path d="M0.560249 178.827V3.29669L175.86 178.827H0.560249Z" stroke="white" stroke-width="1.1205"/>
<path d="M271.685 176.884V1.65072L447.132 176.884H271.685Z" stroke="white" stroke-width="1.1205"/>
<path d="M271.685 343.029V167.796L447.132 343.029H271.685Z" stroke="white" stroke-width="1.1205"/>
<path d="M271.043 520.148H95.7447L271.043 344.766V520.148Z" stroke="white" stroke-width="1.1205"/>
<path d="M542.318 518.204H366.871L542.318 342.971V518.204Z" stroke="white" stroke-width="1.1205"/>
<path d="M542.318 695.349H366.871L542.318 520.116V695.349Z" stroke="white" stroke-width="1.1205"/>
<path d="M543.109 343.179V167.797L718.408 343.179H543.109Z" stroke="white" stroke-width="1.1205"/>
<path d="M543.109 176.884V1.35382L718.409 176.884H543.109Z" stroke="white" stroke-width="1.1205"/>
<path d="M1262.23 807.44H1086.93L1262.23 631.909V807.44Z" stroke="white" stroke-width="1.1205"/>
<path d="M1439.44 807.44H1264.14L1439.44 631.909V807.44Z" stroke="white" stroke-width="1.1205"/>
<path d="M1439.44 629.996H1264.14L1439.44 454.614V629.996Z" stroke="white" stroke-width="1.1205"/>
</g>
</svg>
