<svg width="486" height="486" viewBox="0 0 486 486" fill="none" xmlns="http://www.w3.org/2000/svg">
<path d="M485 1V483.586L2.41421 1H485Z" stroke="#2D9851" stroke-width="2" stroke-miterlimit="10"/>
<path d="M298.523 206.06L241.302 199.023C209.038 195.101 200.796 185.109 200.796 171.072C200.796 153.886 214.18 143.789 238.907 143.789C278.375 143.789 289.047 153.886 292.306 184.423L374.675 165.478C365.87 118.529 333.411 78 235.543 78C151.571 78 104.019 112.794 104.019 175.012C104.019 227.784 133.801 263.264 194.86 272.148L243.75 279.096C280.629 284.145 289.541 293.696 289.541 310.196C289.541 327.277 271.119 337.497 246.938 337.497C212.084 337.497 192.342 329.3 188.591 292.465L99 315.808C104.724 360.963 152.962 408 240.651 408C333.993 408 386 369.142 386 300.697C386.088 248.664 353.823 213.184 298.523 206.06Z" fill="#0B0B0B"/>
</svg>
