<svg width="16" height="16" viewBox="0 0 16 16" fill="none" xmlns="http://www.w3.org/2000/svg">
<g clip-path="url(#clip0_54205_40187)">
<path d="M15.9288 3.00816C15.4113 3.2311 14.8672 3.38634 14.3099 3.47005C14.5705 3.42535 14.9538 2.95602 15.1064 2.76605C15.3382 2.47949 15.5148 2.15237 15.6274 1.8013C15.6274 1.77522 15.6534 1.73797 15.6274 1.71935C15.6143 1.71218 15.5995 1.70842 15.5846 1.70842C15.5696 1.70842 15.5549 1.71218 15.5418 1.71935C14.9367 2.0473 14.2928 2.2976 13.6252 2.46433C13.6019 2.47144 13.5771 2.47208 13.5535 2.46618C13.5299 2.46027 13.5084 2.44804 13.4912 2.43081C13.4392 2.36887 13.3833 2.31039 13.3237 2.25574C13.0514 2.01155 12.7425 1.81169 12.4082 1.66348C11.957 1.47819 11.4696 1.39795 10.9828 1.42881C10.5105 1.45866 10.0494 1.58545 9.62819 1.8013C9.21337 2.02886 8.84879 2.33801 8.55637 2.71017C8.24878 3.09322 8.0267 3.53776 7.90509 4.01389C7.80481 4.46678 7.79344 4.93486 7.8716 5.3921C7.8716 5.47032 7.8716 5.4815 7.80461 5.47032C5.15112 5.07921 2.97399 4.13681 1.19507 2.11419C1.11691 2.02479 1.07598 2.02479 1.01271 2.11419C0.238619 3.29126 0.614499 5.15371 1.58211 6.07376C1.71237 6.19668 1.84635 6.31587 1.98777 6.42762C1.54412 6.3961 1.11131 6.27576 0.714982 6.07376C0.64055 6.02533 0.599613 6.05141 0.595891 6.1408C0.585341 6.26474 0.585341 6.38935 0.595891 6.51329C0.673544 7.10726 0.907417 7.66994 1.27359 8.14377C1.63977 8.6176 2.12511 8.9856 2.67998 9.21012C2.81525 9.26811 2.95619 9.3118 3.10052 9.34049C2.68982 9.42142 2.26859 9.43401 1.85379 9.37774C1.76447 9.35912 1.73098 9.40754 1.76447 9.49321C2.31154 10.9832 3.49873 11.4376 4.36958 11.6909C4.48867 11.7095 4.60776 11.7095 4.74174 11.7393C4.74174 11.7393 4.74174 11.7393 4.71941 11.7617C4.46262 12.231 3.4243 12.5476 2.94794 12.7115C2.07845 13.0241 1.15142 13.1436 0.231175 13.0617C0.0860334 13.0393 0.0525391 13.043 0.0153232 13.0617C-0.0218927 13.0803 0.0153232 13.1213 0.0562607 13.1585C0.24234 13.2814 0.42842 13.3895 0.621942 13.4938C1.19806 13.8083 1.80713 14.0581 2.43808 14.2387C5.70563 15.1402 9.38256 14.4771 11.8351 12.0373C13.7629 10.1227 14.4402 7.48177 14.4402 4.83709C14.4402 4.73652 14.563 4.67692 14.6337 4.62477C15.1214 4.24442 15.5514 3.79523 15.9102 3.29126C15.9724 3.21613 16.0042 3.12048 15.9996 3.02306C15.9996 2.96719 15.9996 2.97837 15.9288 3.00816Z" fill="white"/>
</g>
<defs>
<clipPath id="clip0_54205_40187">
<rect width="16" height="16" fill="white"/>
</clipPath>
</defs>
</svg>
