<svg width="16" height="16" viewBox="0 0 16 16" fill="none" xmlns="http://www.w3.org/2000/svg">
<path d="M15.6 3.7C15.4 3 14.9 2.5 14.2 2.3C13 2 7.89999 2 7.89999 2C7.89999 2 2.90001 2 1.60001 2.3C0.900006 2.5 0.399997 3 0.199997 3.7C-3.05474e-06 5 0 7.6 0 7.6C0 7.6 3.03984e-06 10.2 0.300003 11.5C0.500003 12.2 0.999997 12.7 1.7 12.9C2.9 13.2 8 13.2 8 13.2C8 13.2 13 13.2 14.3 12.9C15 12.7 15.5 12.2 15.7 11.5C16 10.2 16 7.6 16 7.6C16 7.6 16 5 15.6 3.7ZM6.39999 10V5.2L10.6 7.6L6.39999 10Z" fill="white"/>
</svg>
